<?xml version="1.0" standalone="no"?>
<!DOCTYPE svg PUBLIC "-//W3C//DTD SVG 20010904//EN"
 "http://www.w3.org/TR/2001/REC-SVG-20010904/DTD/svg10.dtd">
<svg version="1.0" xmlns="http://www.w3.org/2000/svg"
 width="1080.000000pt" height="1080.000000pt" viewBox="0 0 1080.000000 1080.000000"
 preserveAspectRatio="xMidYMid meet">
<metadata>
Created by potrace 1.14, written by Peter Selinger 2001-2017
</metadata>
<g transform="translate(0.000000,1080.000000) scale(0.100000,-0.100000)"
fill="#000000" stroke="none">
<path d="M0 5400 l0 -5400 5400 0 5400 0 0 5400 0 5400 -5400 0 -5400 0 0
-5400z m4941 190 l1208 -3075 -442 -3 c-467 -3 -548 3 -627 41 -57 27 -120 85
-160 147 -18 28 -127 310 -264 687 l-234 638 -1277 0 -1278 0 -233 -639 c-129
-351 -245 -658 -258 -680 -55 -94 -165 -167 -277 -186 -98 -15 -963 -14 -956
3 12 29 2362 6000 2389 6070 l30 77 586 -2 586 -3 1207 -3075z m5549 2610 l0
-470 -930 0 -930 0 0 -2610 0 -2610 -570 0 -570 0 0 2610 0 2610 -930 0 -930
0 0 470 0 470 2430 0 2430 0 0 -470z"/>
<path d="M3131 7570 c-80 -304 -129 -445 -551 -1601 -225 -617 -410 -1124
-410 -1125 0 -2 439 -4 975 -4 544 0 975 4 975 9 0 4 -171 476 -381 1047 -429
1168 -478 1309 -548 1549 l-49 170 -11 -45z"/>
</g>
</svg>
